<svg xmlns="http://www.w3.org/2000/svg" width="412.212" height="356.997" viewBox="0 0 412.212 356.997"><defs><style>.a{fill:#f5f5f5;}.b{fill:#ebebeb;}.c{fill:#27debf;}.d{fill:#ff6b61;}.e,.j{fill:#fff;}.f,.m{fill:#fafafa;}.g{fill:#e0e0e0;}.h{fill:#455a64;}.i,.k{opacity:0.1;}.j{opacity:0.4;}.l{opacity:0.2;}.m{stroke:#e0e0e0;stroke-miterlimit:10;stroke-width:1.17px;}.n{fill:#37474f;}</style></defs><g transform="translate(-518.997 -434.793)"><g transform="translate(518.997 434.794)"><g transform="translate(0 150.636)"><path class="a" d="M59.112,345.778c78.816,40.3,206.6,40.3,285.412,0s78.808-105.669,0-145.929-206.6-40.3-285.412,0S-19.7,305.455,59.112,345.778Z" transform="translate(0 -169.64)"/></g><g transform="translate(67.317 226.717)"><path class="b" d="M356.538,291.067c4.316,2.5,12.8,1.634,18.958-1.918l35.457-20.592c6.154-3.552,7.637-8.462,3.3-10.958s-12.822-1.643-18.976,1.909l-35.43,20.61C353.7,283.67,352.232,288.572,356.538,291.067Z" transform="translate(-106.983 -255.415)"/><path class="b" d="M111.871,311.6,75.81,290.782l36.061-20.832Z" transform="translate(-75.81 -256.959)"/><path class="b" d="M223.9,322.424,165.76,288.841l58.153-33.521Z" transform="translate(-85.887 -255.32)"/></g><g transform="translate(1.799 156.08)"><g transform="translate(0 22.825)"><path class="c" d="M54.82,255.22c.1-8.436-5.8-25.982-14.421-37.037S18.111,198.94,8.29,202.2c-9.137,3-8.3,14.962,2.664,23.016s27.438,18.195,32.136,31.967l10,16.871Z" transform="translate(-2.026 -201.476)"/><path class="d" d="M54.82,255.22c.1-8.436-5.8-25.982-14.421-37.037S18.111,198.94,8.29,202.2c-9.137,3-8.3,14.962,2.664,23.016s27.438,18.195,32.136,31.967l10,16.871Z" transform="translate(-2.026 -201.476)"/><path class="e" d="M56.557,267.482a.613.613,0,0,1-.551-.5c-5.328-28.868-28.317-52.559-42.205-57.9a.622.622,0,0,1-.346-.8.6.6,0,0,1,.79-.355c14.145,5.443,37.588,29.525,42.978,58.828a.6.6,0,0,1-.5.71A.364.364,0,0,1,56.557,267.482Z" transform="translate(-3.301 -202.195)"/><path class="d" d="M51.428,289.771c-1.3-4.759-7-12.654-16.285-19.233-10.292-7.281-23.354-10.727-26.275-16.33-3.552-6.722,2.158-12.973,12.787-11.544S50.8,258.923,53.523,280.785Z" transform="translate(-2.674 -206.067)"/><path class="e" d="M54.65,285.549a.613.613,0,0,1-.524-.417c-8.533-24.774-27.261-33.663-35.963-34.9a.622.622,0,0,1-.524-.7.613.613,0,0,1,.7-.524c9.626,1.367,28.238,10.434,36.949,35.723a.613.613,0,0,1-.382.781A.523.523,0,0,1,54.65,285.549Z" transform="translate(-3.774 -206.8)"/></g><g transform="translate(360.824)"><path class="c" d="M415.179,228.365s1.181-17.759,11.668-30.99,9.839-18.647,2.611-21.311-23.984,13.231-20.246,34.542S415.179,228.365,415.179,228.365Z" transform="translate(-408.405 -175.771)"/><path class="d" d="M415.179,228.365s1.181-17.759,11.668-30.99,9.839-18.647,2.611-21.311-23.984,13.231-20.246,34.542S415.179,228.365,415.179,228.365Z" transform="translate(-408.405 -175.771)"/><path class="e" d="M412.369,218.524a.408.408,0,0,1-.409-.391c-1.225-19.589,12.609-35.652,17.759-39.293a.411.411,0,1,1,.471.675c-5.07,3.552-18.647,19.331-17.431,38.574a.417.417,0,0,1-.391.435Z" transform="translate(-408.765 -176.107)"/><path class="d" d="M412.331,246.639a93.571,93.571,0,0,0,14.43,3.481c8.125,1.279,11.7-2.6,11.7-2.6s-3.2-7.61-7.805-9.768a45.385,45.385,0,0,1,14.083,5.763s4.964.071,6.935-7.486c0,0-2.939-4.555-12.787-7.015,0,0,5.994-1.51,14.625.693.648.258,3.41-9.519,4.245-14.039s-.977-4.44-4.493-5.4-15.167-3.552-17.369-1.625-3.321,8.551-3.321,8.551a15.557,15.557,0,0,1-.337-8.382s-3.161-1.234-8.072.186c-4.022,1.172-4.218,3.907-4.031,7a30.077,30.077,0,0,0,1.776,7.85s-3.135-4.014-3.232-12.725c0,0-8.223,4.085-9.626,12.254C408.255,227.814,407.154,240.778,412.331,246.639Z" transform="translate(-408.371 -179.376)"/><path class="e" d="M414.522,245.671a.453.453,0,0,0,.408-.266c6.553-13.6,30.9-29.419,39.63-31.079a.453.453,0,0,0,.355-.533.462.462,0,0,0-.533-.364c-8.88,1.723-33.619,17.759-40.278,31.621a.462.462,0,0,0,.213.6.435.435,0,0,0,.2.018Z" transform="translate(-409.009 -179.989)"/></g></g><g transform="translate(49.282 -0.001)"><path class="f" d="M57.7,270.372c-1.012,0-1.616-.835-1.616-2.22V118.787L239,13.18V161.942a7.921,7.921,0,0,1-3.552,6.216L59.152,269.92a3.054,3.054,0,0,1-1.456.453Z" transform="translate(-55.565 -1.476)"/><path class="g" d="M238.414,13.963V161.828a7.5,7.5,0,0,1-3.321,5.763L58.821,269.352a2.459,2.459,0,0,1-1.2.391c-.977,0-1.083-1.2-1.083-1.7V118.965l181.875-105m1.039-1.776L55.5,118.37V268.038c0,1.732.888,2.744,2.122,2.744a3.552,3.552,0,0,0,1.723-.524L235.608,168.488a8.507,8.507,0,0,0,3.845-6.66V12.16Z" transform="translate(-55.5 -1.362)"/><path class="d" d="M55.5,118.37v24.988l183.952-106.2v-25Z" transform="translate(-55.5 -1.362)"/><path class="f" d="M71.75,128.9v3.552c0,.728.515,1.03,1.154.666l56.555-32.66V94.24l-56.6,32.642a2.566,2.566,0,0,0-1.11,2.016Z" transform="translate(-57.32 -10.557)"/><path class="h" d="M142.8,90.29c.639-.373,1.154-.071,1.154.666v3.552a2.54,2.54,0,0,1-1.154,2L136.74,100V93.788Z" transform="translate(-64.601 -10.096)"/><path class="h" d="M55.5,108.954a8.507,8.507,0,0,1,3.845-6.66L235.608.524c2.122-1.225,3.845-.231,3.845,2.22V10.8L55.5,117.008Z" transform="translate(-55.5 0.001)"/><path class="c" d="M239.416,16.06a4,4,0,0,0-1.776,3.126c0,1.154.808,1.616,1.776,1.048a4,4,0,0,0,1.776-3.126C241.219,15.98,240.41,15.492,239.416,16.06Z" transform="translate(-75.905 -1.772)"/><path class="c" d="M245.846,12.339a4,4,0,0,0-1.776,3.126c0,1.154.808,1.616,1.776,1.048a4,4,0,0,0,1.776-3.126C247.649,12.233,246.84,11.771,245.846,12.339Z" transform="translate(-76.625 -1.354)"/><path class="c" d="M252.286,8.619a4,4,0,0,0-1.776,3.126c0,1.154.808,1.616,1.776,1.039a3.969,3.969,0,0,0,1.776-3.117C254.089,8.512,253.281,8.042,252.286,8.619Z" transform="translate(-77.346 -0.937)"/><g class="i" transform="translate(104.266 30.681)"><path d="M197.173,58.563a8.729,8.729,0,0,0-3.943,6.829c0,2.522,1.776,3.552,3.943,2.282a8.729,8.729,0,0,0,3.943-6.829C201.115,58.332,199.348,57.31,197.173,58.563Z" transform="translate(-175.195 -37.181)"/><path d="M176.863,70.292a8.711,8.711,0,0,0-3.943,6.829c0,2.513,1.776,3.552,3.943,2.273a8.711,8.711,0,0,0,3.943-6.829C180.805,70.052,179.038,69.031,176.863,70.292Z" transform="translate(-172.92 -38.495)"/><path d="M217.5,46.842a8.711,8.711,0,0,0-3.943,6.829c0,2.513,1.776,3.552,3.943,2.273a8.711,8.711,0,0,0,3.943-6.829C221.427,46.6,219.66,45.581,217.5,46.842Z" transform="translate(-177.473 -35.868)"/><path d="M237.793,35.092a8.711,8.711,0,0,0-3.943,6.829c0,2.513,1.776,3.552,3.943,2.273a8.711,8.711,0,0,0,3.943-6.829C241.735,34.852,239.968,33.831,237.793,35.092Z" transform="translate(-179.746 -34.551)"/></g><path class="g" d="M75.595,158.916,118.4,134.2c2.131-1.225,3.845-.231,3.845,2.22v41.1a8.48,8.48,0,0,1-3.845,6.66L75.595,208.9c-2.122,1.225-3.845.231-3.845-2.22v-41.1a8.489,8.489,0,0,1,3.845-6.66Z" transform="translate(-57.32 -14.975)"/><path class="g" d="M144.645,115.639l89.685-51.8c2.122-1.225,3.845-.231,3.845,2.22v41.1a8.507,8.507,0,0,1-3.845,6.66l-89.685,51.787c-2.131,1.225-3.845.231-3.845-2.22V122.3A8.489,8.489,0,0,1,144.645,115.639Z" transform="translate(-65.056 -7.093)"/><path class="g" d="M75.595,227.433l68.054-39.293c2.122-1.225,3.845-.355,3.845,1.945a8.249,8.249,0,0,1-3.845,6.385L75.595,235.762c-2.122,1.225-3.845.355-3.845-1.945a8.249,8.249,0,0,1,3.845-6.384Z" transform="translate(-57.32 -21.014)"/><path class="g" d="M75.595,243.853l68.054-39.293c2.122-1.225,3.845-.355,3.845,1.945a8.249,8.249,0,0,1-3.845,6.385L75.595,252.182c-2.122,1.225-3.845.355-3.845-1.945a8.249,8.249,0,0,1,3.845-6.385Z" transform="translate(-57.32 -22.853)"/><path class="g" d="M75.595,260.258l68.054-39.328c2.122-1.225,3.845-.355,3.845,1.945a8.249,8.249,0,0,1-3.845,6.385L75.595,268.587c-2.122,1.225-3.845.355-3.845-1.945A8.249,8.249,0,0,1,75.595,260.258Z" transform="translate(-57.32 -24.687)"/></g><g transform="translate(99.773 113.438)"><path class="d" d="M112.37,200.46a5.1,5.1,0,0,1,2.3-4L232.7,128.321a5.133,5.133,0,0,1,4.609,0l2.6,1.51a5.07,5.07,0,0,1,2.309,4v90.458a5.115,5.115,0,0,1-2.309,4.031l-118.02,68.108a5.15,5.15,0,0,1-4.617,0l-2.566-1.51a5.124,5.124,0,0,1-2.309-4Z" transform="translate(-112.361 -127.753)"/><path class="j" d="M113.12,198.184l6.553,3.774,121.954-70.434a4.778,4.778,0,0,0-1.634-1.723l-2.6-1.492a5.026,5.026,0,0,0-4.609,0L114.789,196.461A4.724,4.724,0,0,0,113.12,198.184Z" transform="translate(-112.445 -127.75)"/><path class="k" d="M112.36,209.343V299.81A5.079,5.079,0,0,0,114.7,303.8l2.593,1.51a4.219,4.219,0,0,0,.639.284,4.961,4.961,0,0,0,.95.222,5.7,5.7,0,0,0,1.776-.071l.444-.115.275-.115a1.341,1.341,0,0,1-1.1,0,1.607,1.607,0,0,1-.71-1.518V213.508a2.016,2.016,0,0,1,1.2-1.962l-1.2-.7-6.553-3.774a4.8,4.8,0,0,0-.657,2.273Z" transform="translate(-112.36 -136.636)"/><path class="l" d="M120.5,202.4l54.655,20.423a8.88,8.88,0,0,0,10.54-3.472l8.782-13.444,48.412-74.172-46.663,74.679,46.9,18.354a4.892,4.892,0,0,1-.719,2.3l-46.317-20.423-10.2,16.33a8.88,8.88,0,0,1-11.117,3.41l-7.264-3.206-46.3,73.87a1.607,1.607,0,0,1-.71-1.518v-1.51l46.787-70.967Z" transform="translate(-113.271 -128.197)"/></g><g transform="translate(204.385 22.74)"><path class="m" d="M230.17,86.658V294.364c0,2.451,1.714,3.445,3.845,2.22l93.3-53.873a8.48,8.48,0,0,0,3.845-6.66V28.354c0-2.451-1.714-3.445-3.845-2.22L234.015,80A8.48,8.48,0,0,0,230.17,86.658Z" transform="translate(-230.17 -25.609)"/><path class="h" d="M236.26,97.723a2.1,2.1,0,0,1,.995-1.616l10.656-6.136c.551-.32,1-.107,1,.462a2.122,2.122,0,0,1-1,1.625l-10.656,6.127C236.7,98.5,236.26,98.3,236.26,97.723Z" transform="translate(-230.852 -32.803)"/><path class="h" d="M236.26,102.383a2.1,2.1,0,0,1,.995-1.616l10.656-6.136c.551-.32,1-.115,1,.462a2.113,2.113,0,0,1-1.03,1.625l-10.656,6.136C236.7,103.164,236.26,102.934,236.26,102.383Z" transform="translate(-230.852 -33.325)"/><path class="h" d="M236.26,107a2.087,2.087,0,0,1,.995-1.616l10.656-6.136c.551-.32,1-.115,1,.462a2.113,2.113,0,0,1-1,1.616l-10.656,6.136C236.7,107.82,236.26,107.616,236.26,107Z" transform="translate(-230.852 -33.842)"/><path class="n" d="M334.379,47.459V45.8c0-.1-.071-.142-.169-.107l-1.27.577a.142.142,0,0,1-.213-.1,3.168,3.168,0,0,0-.293-.63.382.382,0,0,1,0-.311l.888-1.723a.2.2,0,0,0-.071-.249l-.888-.533a.186.186,0,0,0-.258.062l-1.066,1.6a.355.355,0,0,1-.275.133,2.664,2.664,0,0,0-.693.071.151.151,0,0,1-.187-.133l-.142-1.394a.107.107,0,0,0-.178-.089l-1.438.826a.409.409,0,0,0-.169.266l-.142,1.6a.577.577,0,0,1-.151.3,10.377,10.377,0,0,0-.8.844.257.257,0,0,1-.275.08l-.888-.32a.222.222,0,0,0-.258.089l-1.057,1.829a.213.213,0,0,0,.044.275l.737.639a.266.266,0,0,1,.071.284,9.2,9.2,0,0,0-.329,1.11.613.613,0,0,1-.186.284l-1.314.888a.373.373,0,0,0-.142.284v1.652c0,.1.071.151.16.107l1.279-.577a.16.16,0,0,1,.213.1,3.022,3.022,0,0,0,.284.639.346.346,0,0,1,0,.311l-.888,1.714a.2.2,0,0,0,.08.249l.888.533a.2.2,0,0,0,.258-.053l1.039-1.527a.4.4,0,0,1,.284-.142,2.779,2.779,0,0,0,.693-.071.16.16,0,0,1,.187.142l.142,1.394a.107.107,0,0,0,.169.089l1.439-.835a.373.373,0,0,0,.178-.266l.142-1.6a.47.47,0,0,1,.151-.293,8.957,8.957,0,0,0,.79-.888.266.266,0,0,1,.284-.08l.888.32a.222.222,0,0,0,.258-.1l1.057-1.829a.231.231,0,0,0,0-.275l-.737-.63a.3.3,0,0,1-.08-.293,7.239,7.239,0,0,0,.337-1.11.5.5,0,0,1,.186-.275l1.305-.888a.382.382,0,0,0,.124-.311Zm-5.621,5.212c-1.341.773-2.424.151-2.424-1.4a5.328,5.328,0,0,1,2.424-4.2c1.341-.773,2.433-.142,2.433,1.4a5.328,5.328,0,0,1-2.433,4.2Z" transform="translate(-240.6 -27.524)"/><path class="h" d="M284.508,93.82c10.9-6.3,19.74-1.19,19.74,11.393s-8.88,27.9-19.74,34.2-19.748,1.19-19.748-11.4S273.64,100.116,284.508,93.82Z" transform="translate(-234.045 -32.949)"/><path class="d" d="M286.072,105.21c3.552-2.042,6.4-.391,6.4,3.694a14.154,14.154,0,0,1-6.4,11.117c-3.552,2.042-6.4.391-6.4-3.694a14.154,14.154,0,0,1,6.4-11.117Z" transform="translate(-235.715 -34.428)"/><path class="d" d="M297.977,128.892c0-6.713-4.706-9.43-10.523-6.074l-3.632,2.1c-5.807,3.357-10.522,11.544-10.522,18.221v1.883a10.851,10.851,0,0,0,3.392.515,17.759,17.759,0,0,0,8.809-2.664,38.9,38.9,0,0,0,12.432-12.352Z" transform="translate(-235.002 -36.338)"/><path class="d" d="M266.757,163.959l35.634-20.574c1.066-.613,1.927-.178,1.927.977a4.12,4.12,0,0,1-1.927,3.188l-35.634,20.574c-1.066.613-1.927.178-1.927-.968a4.12,4.12,0,0,1,1.927-3.2Z" transform="translate(-234.053 -38.772)"/><path class="h" d="M262.418,179.97l43.289-25.005c1.057-.613,1.918-.178,1.918.977a4.129,4.129,0,0,1-1.918,3.188l-43.289,25.023c-1.057.613-1.918.178-1.918-.977A4.147,4.147,0,0,1,262.418,179.97Z" transform="translate(-233.568 -40.069)"/><path class="n" d="M312.564,176.793l12.121-7c.63-.364,1.154-.2,1.154.373a2.344,2.344,0,0,1-1.154,1.714l-12.121,7c-.639.364-1.154.2-1.154-.373A2.318,2.318,0,0,1,312.564,176.793Z" transform="translate(-239.271 -41.74)"/><path class="d" d="M244.277,211.061l17.759-10.274c1.066-.613,1.927-.115,1.927,1.11v12.219a4.244,4.244,0,0,1-1.927,3.33l-17.759,10.274c-1.066.613-1.927.115-1.927-1.11V214.391A4.245,4.245,0,0,1,244.277,211.061Z" transform="translate(-231.535 -45.204)"/><path class="f" d="M247.566,213.4l12.121-7c.639-.364,1.154-.2,1.154.373a2.318,2.318,0,0,1-1.154,1.714l-12.121,7c-.63.364-1.145.2-1.145-.382A2.335,2.335,0,0,1,247.566,213.4Z" transform="translate(-231.99 -45.842)"/><path class="f" d="M246.42,220.1v3.552c0,.737.515,1.03,1.145.666l12.121-7a2.566,2.566,0,0,0,1.154-2v-3.552c0-.737-.515-1.03-1.154-.666l-12.121,7A2.566,2.566,0,0,0,246.42,220.1Z" transform="translate(-231.99 -46.372)"/><path class="d" d="M276.758,192.3l17.8-10.274c1.057-.622,1.918-.124,1.918,1.11v12.219a4.262,4.262,0,0,1-1.918,3.33l-17.8,10.274c-1.057.613-1.918.115-1.918-1.11V195.63A4.262,4.262,0,0,1,276.758,192.3Z" transform="translate(-235.174 -43.102)"/><path class="f" d="M280.064,194.642l12.121-7c.639-.373,1.154-.2,1.154.373a2.291,2.291,0,0,1-1.154,1.7l-12.121,7.006c-.639.364-1.154.2-1.154-.382A2.309,2.309,0,0,1,280.064,194.642Z" transform="translate(-235.63 -43.739)"/><path class="f" d="M278.91,201.334v3.552c0,.728.515,1.03,1.154.666l12.121-7.006a2.54,2.54,0,0,0,1.154-2V193c0-.737-.515-1.03-1.154-.666l-12.121,7A2.539,2.539,0,0,0,278.91,201.334Z" transform="translate(-235.63 -44.269)"/><path class="d" d="M309.268,173.531l17.759-10.274c1.066-.613,1.927-.115,1.927,1.11v12.219a4.227,4.227,0,0,1-1.927,3.33L309.268,190.2c-1.066.613-1.918.115-1.918-1.11V176.861A4.235,4.235,0,0,1,309.268,173.531Z" transform="translate(-238.816 -41)"/><path class="f" d="M312.564,175.882l12.121-7c.63-.373,1.146-.2,1.146.373a2.3,2.3,0,0,1-1.146,1.7l-12.121,7c-.639.373-1.154.2-1.154-.373a2.291,2.291,0,0,1,1.154-1.7Z" transform="translate(-239.271 -41.638)"/><path class="f" d="M311.41,182.575v3.552c0,.737.515,1.039,1.154.666l12.121-7a2.557,2.557,0,0,0,1.154-2v-3.552c0-.737-.524-1.039-1.154-.666l-12.121,7A2.54,2.54,0,0,0,311.41,182.575Z" transform="translate(-239.271 -42.168)"/><path class="g" d="M246.195,238.711l71.668-41.371c2.122-1.225,3.845-.355,3.845,1.945a8.249,8.249,0,0,1-3.845,6.385L246.195,247.04c-2.122,1.225-3.845.355-3.845-1.945a8.249,8.249,0,0,1,3.845-6.385Z" transform="translate(-231.534 -44.785)"/><path class="g" d="M246.195,257.441l71.668-41.371c2.122-1.225,3.845-.355,3.845,1.945a8.249,8.249,0,0,1-3.845,6.385L246.195,265.77c-2.122,1.225-3.845.355-3.845-1.945a8.249,8.249,0,0,1,3.845-6.385Z" transform="translate(-231.534 -46.884)"/><path class="d" d="M272.758,269.145l25.014-14.438c1.057-.613,1.918-.115,1.918,1.11v8.054a4.262,4.262,0,0,1-1.918,3.33l-25.014,14.456c-1.057.613-1.918.115-1.918-1.11v-8.054a4.262,4.262,0,0,1,1.918-3.348Z" transform="translate(-234.726 -51.245)"/><path class="f" d="M248.226,245.319a3.969,3.969,0,0,0-1.776,3.126c0,1.145.8,1.616,1.776,1.039A3.987,3.987,0,0,0,250,246.358C250.029,245.212,249.221,244.742,248.226,245.319Z" transform="translate(-231.994 -50.195)"/><path class="f" d="M254.656,241.6a3.987,3.987,0,0,0-1.776,3.126c0,1.145.808,1.616,1.776,1.039a3.987,3.987,0,0,0,1.776-3.126C256.459,241.493,255.65,241.04,254.656,241.6Z" transform="translate(-232.714 -49.779)"/><path class="f" d="M261.086,237.879A3.987,3.987,0,0,0,259.31,241c0,1.145.808,1.616,1.776,1.039a3.978,3.978,0,0,0,1.776-3.126C262.9,237.772,262.089,237.3,261.086,237.879Z" transform="translate(-233.434 -49.362)"/><path class="f" d="M267.526,234.159a3.987,3.987,0,0,0-1.776,3.126c0,1.145.808,1.616,1.776,1.039A3.987,3.987,0,0,0,269.3,235.2C269.329,234.052,268.52,233.582,267.526,234.159Z" transform="translate(-234.156 -48.945)"/><path class="f" d="M273.956,230.439a3.987,3.987,0,0,0-1.776,3.126c0,1.145.808,1.616,1.776,1.039a3.987,3.987,0,0,0,1.776-3.126C275.759,230.332,274.951,229.862,273.956,230.439Z" transform="translate(-234.876 -48.528)"/><path class="f" d="M280.4,226.719a3.987,3.987,0,0,0-1.776,3.126c0,1.145.808,1.616,1.776,1.039a3.987,3.987,0,0,0,1.776-3.126C282.2,226.612,281.39,226.142,280.4,226.719Z" transform="translate(-235.598 -48.111)"/><path class="f" d="M286.826,222.971a3.987,3.987,0,0,0-1.776,3.126c0,1.145.808,1.616,1.776,1.039a3.987,3.987,0,0,0,1.776-3.126C288.629,222.891,287.821,222.42,286.826,222.971Z" transform="translate(-236.318 -47.693)"/><path class="f" d="M248.226,264.1a3.969,3.969,0,0,0-1.776,3.126c0,1.146.8,1.616,1.776,1.039A3.987,3.987,0,0,0,250,265.138C250.029,263.983,249.221,263.522,248.226,264.1Z" transform="translate(-231.994 -52.299)"/><path class="f" d="M254.656,260.379a3.987,3.987,0,0,0-1.776,3.126c0,1.146.808,1.616,1.776,1.039a3.987,3.987,0,0,0,1.776-3.126C256.459,260.272,255.65,259.8,254.656,260.379Z" transform="translate(-232.714 -51.882)"/><path class="f" d="M261.086,256.657a3.987,3.987,0,0,0-1.776,3.126c0,1.145.808,1.616,1.776,1.039a3.978,3.978,0,0,0,1.776-3.126C262.9,256.55,262.089,256.044,261.086,256.657Z" transform="translate(-233.434 -51.463)"/><path class="f" d="M267.526,252.967a3.987,3.987,0,0,0-1.776,3.126c0,1.146.808,1.616,1.776,1.039a3.987,3.987,0,0,0,1.776-3.126C269.329,252.834,268.52,252.363,267.526,252.967Z" transform="translate(-234.156 -51.05)"/><path class="f" d="M273.956,249.219a3.987,3.987,0,0,0-1.776,3.126c0,1.145.808,1.616,1.776,1.039a3.987,3.987,0,0,0,1.776-3.126C275.759,249.112,274.951,248.642,273.956,249.219Z" transform="translate(-234.876 -50.632)"/><path class="f" d="M280.4,245.5a3.987,3.987,0,0,0-1.776,3.126c0,1.145.808,1.616,1.776,1.039a3.987,3.987,0,0,0,1.776-3.126C282.2,245.392,281.39,244.922,280.4,245.5Z" transform="translate(-235.598 -50.215)"/><path class="f" d="M286.826,241.779a3.987,3.987,0,0,0-1.776,3.126c0,1.145.808,1.616,1.776,1.039a3.987,3.987,0,0,0,1.776-3.126C288.629,241.672,287.821,241.2,286.826,241.779Z" transform="translate(-236.318 -49.798)"/></g><g transform="translate(316.216 79.065)"><path class="h" d="M374.926,274.977a17.28,17.28,0,0,1-8.747-2.318c-6.393-3.694-10.07-11.428-10.07-21.214,0-17.209,10.94-37.011,24.908-45.073,7.521-4.333,14.989-4.8,21.027-1.323,6.4,3.7,10.07,11.428,10.07,21.223,0,17.209-10.94,37-24.908,45.065a24.651,24.651,0,0,1-12.281,3.641Zm18.381-59.84a13.142,13.142,0,0,0-6.065,1.971c-10.141,5.852-18.71,21.578-18.71,34.338,0,5.168,1.456,9.084,3.88,10.487,2.762,1.6,6.6-.142,8.64-1.323,10.141-5.852,18.71-21.578,18.71-34.338,0-5.168-1.447-9.093-3.872-10.487a5.079,5.079,0,0,0-2.584-.648Z" transform="translate(-356.11 -101.778)"/><path class="n" d="M403.991,230.67c0-9.67-6.083-13.24-6.083-13.24h0c2.424,1.394,3.872,5.328,3.872,10.487,0,12.76-8.569,28.486-18.71,34.338-2.042,1.181-5.878,2.921-8.64,1.323,0,0,5.141,3.188,12.236-.684C396.949,257.291,403.991,243.43,403.991,230.67Z" transform="translate(-358.162 -103.423)"/><path class="n" d="M395.1,95.442a6.4,6.4,0,1,0-12.8,0h0V197.337h0a3.161,3.161,0,0,0,1.874,2.611,9.99,9.99,0,0,0,9.057,0,3.161,3.161,0,0,0,1.874-2.611h0V95.46h0Z" transform="translate(-359.044 -89.04)"/><path class="h" d="M387.84,121.009a8.187,8.187,0,0,0-3.7-6.4,2.557,2.557,0,0,0-2.664-.231h0l-15.833,9.093-.382.231a.887.887,0,0,0-.151.089,4.689,4.689,0,0,0-.755.622,5.23,5.23,0,0,0,6.171,8.32l.3-.169,15.9-9.164h0A2.664,2.664,0,0,0,387.84,121.009Z" transform="translate(-356.858 -91.848)"/><path class="h" d="M387.5,149.738a8.16,8.16,0,0,0-3.7-6.4,2.557,2.557,0,0,0-2.664-.24h0l-18.523,10.656-.382.222a.887.887,0,0,0-.151.089,5.827,5.827,0,0,0-.764.622A5.234,5.234,0,0,0,367.5,163l.3-.169,18.647-10.656h0a2.6,2.6,0,0,0,1.057-2.442Z" transform="translate(-356.52 -95.066)"/></g></g></g></svg>